<svg width="119" height="24" viewBox="0 0 119 24" fill="none" xmlns="http://www.w3.org/2000/svg">
<g id="Group">
<g id="Group_2">
<path id="Vector" d="M20.8896 18.5995C17.593 18.5995 14.9083 15.9171 14.9083 12.6182C14.9083 11.6175 15.1568 10.6766 15.5939 9.84608C14.8968 9.73566 14.2619 9.42969 13.7535 8.9834V18.8824C13.7535 20.992 12.3962 22.7864 10.5098 23.4489C10.9193 23.4926 11.3356 23.5156 11.7566 23.5156C15.6974 23.5156 19.1849 21.574 21.3175 18.5972H20.8896V18.5995Z" fill="#0887C9"/>
<path id="Vector_2" d="M12.494 18.8848V13.1933C11.8475 13.7593 11.0033 14.1043 10.0762 14.1043C8.04713 14.1043 6.39768 12.4526 6.39768 10.4258C6.39768 8.39681 8.04713 6.74735 10.0762 6.74735C11.001 6.74735 11.8452 7.09242 12.494 7.65835V6.10091H12.4986C12.5607 4.12709 14.1826 2.53975 16.1725 2.53975C16.5199 2.53975 16.8028 2.82271 16.8028 3.17008C16.8028 3.51976 16.5199 3.80272 16.1725 3.80272C14.8405 3.80272 13.7547 4.88625 13.7547 6.21824C13.7547 7.55022 14.8382 8.63606 16.1725 8.63606C16.2553 8.63606 16.3312 8.65216 16.4025 8.67977C17.4999 7.4329 19.1033 6.63923 20.8908 6.63923C21.2405 6.63923 21.5234 6.92219 21.5234 7.26956C21.5234 7.61924 21.2405 7.8999 20.8908 7.8999C18.2889 7.8999 16.1725 10.0164 16.1725 12.6182C16.1725 15.2201 18.2889 17.3365 20.8908 17.3365H22.1124C23.0095 15.6779 23.518 13.7777 23.518 11.7578C23.518 5.26353 18.2544 0 11.7601 0C8.3968 0 5.36475 1.4148 3.22069 3.67849V8.96273L7.80328 4.38014C8.04943 4.13399 8.44972 4.13399 8.69587 4.38014C8.94202 4.6263 8.94202 5.02658 8.69587 5.27273L3.48295 10.4857L8.69587 15.6986C8.94202 15.9447 8.94202 16.345 8.69587 16.5912C8.57394 16.7131 8.41061 16.7752 8.24957 16.7752C8.08854 16.7752 7.9252 16.7131 7.80328 16.5912L3.22069 12.0109V16.1472C3.22069 16.4945 2.93773 16.7775 2.59036 16.7775C2.24298 16.7775 1.96002 16.4945 1.96002 16.1472V5.26353C0.722355 7.12463 0 9.35611 0 11.7601C0 16.5222 2.83191 20.617 6.89918 22.4666H8.91212C10.8859 22.4666 12.494 20.8609 12.494 18.8848Z" fill="#0887C9"/>
<path id="Vector_3" d="M10.0757 8.00781C8.74369 8.00781 7.66016 9.09135 7.66016 10.4256C7.66016 11.7576 8.74369 12.8412 10.0757 12.8412C11.4077 12.8412 12.4935 11.7576 12.4935 10.4256C12.4935 9.09365 11.4077 8.00781 10.0757 8.00781Z" fill="#0887C9"/>
<path id="Vector_4" d="M1.95703 16.1446C1.95703 16.492 2.23999 16.7749 2.58737 16.7749C2.93474 16.7749 3.2177 16.492 3.2177 16.1446V12.0106L7.80029 16.5932C7.92221 16.7151 8.08555 16.7772 8.24658 16.7772C8.40762 16.7772 8.57095 16.7151 8.69288 16.5932C8.93903 16.347 8.93903 15.9468 8.69288 15.7006L3.48226 10.4854L8.69518 5.27247C8.94133 5.02631 8.94133 4.62603 8.69518 4.37987C8.44903 4.13372 8.04874 4.13372 7.80259 4.37987L3.22 8.96246V3.67822C2.7553 4.16823 2.33201 4.69734 1.95703 5.26326V16.1446Z" fill="white"/>
<path id="Vector_5" d="M13.7554 18.8847V8.98568C14.2638 9.43197 14.8988 9.73794 15.5958 9.84836C15.1587 10.6765 14.9103 11.6197 14.9103 12.6205C14.9103 15.9194 17.5926 18.6017 20.8916 18.6017H21.3217C21.6116 18.1992 21.8762 17.7782 22.1131 17.3388H20.8916C18.2897 17.3388 16.1732 15.2223 16.1732 12.6205C16.1732 10.0186 18.2897 7.90214 20.8916 7.90214C21.2412 7.90214 21.5242 7.61918 21.5242 7.27181C21.5242 6.92443 21.2412 6.64147 20.8916 6.64147C19.1041 6.64147 17.5006 7.43514 16.4033 8.68201C16.332 8.65441 16.2561 8.6383 16.1732 8.6383C14.8413 8.6383 13.7554 7.55477 13.7554 6.22048C13.7554 4.8885 14.839 3.80496 16.1732 3.80496C16.5206 3.80496 16.8036 3.522 16.8036 3.17233C16.8036 2.82495 16.5206 2.54199 16.1732 2.54199C14.1833 2.54199 12.5615 4.12933 12.4993 6.10316H12.4947V7.66059C11.8483 7.09467 11.004 6.7496 10.0769 6.7496C8.04789 6.7496 6.39844 8.40135 6.39844 10.4281C6.39844 12.4571 8.04789 14.1066 10.0769 14.1066C11.0017 14.1066 11.846 13.7615 12.4947 13.1956V18.887C12.4947 20.8608 10.889 22.4689 8.91288 22.4689H6.89995C8.02029 22.9796 9.23495 23.3201 10.5117 23.4535C12.3981 22.7886 13.7554 20.9943 13.7554 18.8847ZM10.0769 12.8413C8.74494 12.8413 7.66141 11.7578 7.66141 10.4258C7.66141 9.0938 8.74494 8.00797 10.0769 8.00797C11.4089 8.00797 12.4947 9.0915 12.4947 10.4258C12.4947 11.7578 11.4089 12.8413 10.0769 12.8413Z" fill="white"/>
</g>
<g id="Group_3">
<g id="Group_4">
<g id="Group_5">
<path id="Vector_6" d="M28.3939 18.291L30.3125 16.4806C30.3378 16.4553 30.37 16.4414 30.4091 16.4414H30.8922C30.9106 16.4414 30.9244 16.4483 30.929 16.4622C30.9336 16.476 30.929 16.4898 30.9152 16.5059L28.8609 18.4038L30.9543 20.4305C30.9704 20.4443 30.975 20.4604 30.9681 20.4719C30.9635 20.4857 30.9497 20.4926 30.9313 20.4926H30.4482C30.4068 20.4926 30.3746 20.4788 30.3516 20.4512L28.3939 18.5234V20.4466C28.3939 20.4765 28.3778 20.4926 28.3479 20.4926H28.0028C27.9729 20.4926 27.9568 20.4765 27.9568 20.4466V16.4852C27.9568 16.4553 27.9729 16.4391 28.0028 16.4391H28.3479C28.3778 16.4391 28.3939 16.4553 28.3939 16.4852V18.291Z" fill="black"/>
<path id="Vector_7" d="M33.1105 20.548C32.8045 20.548 32.5262 20.4951 32.2754 20.3869C32.027 20.2788 31.813 20.1316 31.6336 19.9452C31.4564 19.7566 31.3184 19.5381 31.2195 19.285C31.1206 19.0319 31.0723 18.7605 31.0723 18.4683C31.0723 18.1762 31.1206 17.9047 31.2195 17.6516C31.3184 17.3986 31.4564 17.1777 31.6336 16.9914C31.8107 16.8051 32.0247 16.6578 32.2754 16.5497C32.5262 16.4416 32.8022 16.3887 33.1105 16.3887C33.4165 16.3887 33.6948 16.4416 33.9456 16.5497C34.1963 16.6578 34.408 16.8051 34.5874 16.9914C34.7646 17.1777 34.9026 17.3986 35.0015 17.6516C35.1004 17.9047 35.1487 18.1785 35.1487 18.4683C35.1487 18.7605 35.1004 19.0319 35.0015 19.285C34.9026 19.5381 34.7646 19.7589 34.5874 19.9452C34.4103 20.1316 34.1963 20.2811 33.9456 20.3869C33.6948 20.4951 33.4165 20.548 33.1105 20.548ZM33.1105 20.173C33.3567 20.173 33.5798 20.1293 33.7776 20.0396C33.9755 19.9521 34.1457 19.8279 34.2838 19.6738C34.4218 19.5196 34.5276 19.3379 34.6012 19.1309C34.6748 18.9261 34.7116 18.703 34.7116 18.4637C34.7116 18.2245 34.6748 18.0036 34.6012 17.7966C34.5276 17.5918 34.4218 17.4101 34.2838 17.2537C34.1457 17.0995 33.9778 16.9753 33.7776 16.8879C33.5798 16.7982 33.3567 16.7545 33.1105 16.7545C32.8643 16.7545 32.6435 16.7982 32.4434 16.8879C32.2455 16.9753 32.0753 17.0995 31.9395 17.2537C31.8015 17.4078 31.6957 17.5895 31.6221 17.7966C31.5485 18.0036 31.5117 18.2245 31.5117 18.4637C31.5117 18.7007 31.5485 18.9238 31.6221 19.1309C31.6957 19.3379 31.8015 19.5173 31.9395 19.6738C32.0776 19.8279 32.2455 19.9521 32.4434 20.0396C32.6435 20.1293 32.8643 20.173 33.1105 20.173Z" fill="black"/>
<path id="Vector_8" d="M37.1175 16.4391C37.3752 16.4391 37.5891 16.4783 37.7617 16.5519C37.9342 16.6278 38.07 16.7244 38.1735 16.844C38.2747 16.9637 38.3483 17.0948 38.392 17.242C38.4357 17.387 38.4564 17.5296 38.4564 17.6699C38.4564 17.7642 38.4426 17.8678 38.415 17.9828C38.3874 18.0955 38.3345 18.2059 38.2609 18.3141C38.1873 18.4222 38.0884 18.5188 37.9664 18.6039C37.8445 18.689 37.6881 18.7488 37.4994 18.7834L38.4702 20.4351C38.4771 20.4489 38.4794 20.4627 38.4725 20.4765C38.4679 20.488 38.4541 20.4926 38.4357 20.4926H38.0953C38.0608 20.4926 38.0354 20.4788 38.0216 20.4512L37.0577 18.8064H36.2572V20.4466C36.2572 20.4765 36.2411 20.4926 36.2112 20.4926H35.8661C35.8362 20.4926 35.8201 20.4765 35.8201 20.4466V16.4852C35.8201 16.4553 35.8362 16.4391 35.8661 16.4391H37.1175ZM36.2549 16.8141V18.4314H37.1567C37.4189 18.4314 37.626 18.3693 37.7847 18.2473C37.9411 18.1231 38.0193 17.9322 38.0193 17.6722C38.0193 17.3916 37.9388 17.1799 37.7778 17.0327C37.6168 16.8877 37.4074 16.8141 37.1498 16.8141H36.2549Z" fill="black"/>
<path id="Vector_9" d="M39.127 20.4464V16.485C39.127 16.4551 39.1431 16.439 39.173 16.439H41.6253C41.6552 16.439 41.6713 16.4551 41.6713 16.485V16.7679C41.6713 16.7978 41.6552 16.8139 41.6253 16.8139H39.5663V18.2426H41.5586C41.5885 18.2426 41.6046 18.2587 41.6046 18.2886V18.5715C41.6046 18.6014 41.5885 18.6175 41.5586 18.6175H39.5663V20.1152H41.6598C41.6897 20.1152 41.7058 20.129 41.7058 20.1612V20.4441C41.7058 20.474 41.6897 20.4901 41.6598 20.4901H39.1753C39.1408 20.4924 39.127 20.4763 39.127 20.4464Z" fill="black"/>
<path id="Vector_10" d="M45.0038 19.3907H43.0069L42.5583 20.4512C42.5468 20.4788 42.5261 20.4926 42.4962 20.4926H42.1397C42.0982 20.4926 42.0844 20.4719 42.1005 20.4351L43.7914 16.4852C43.8029 16.4553 43.8213 16.4391 43.8489 16.4391H44.1664C44.194 16.4391 44.2124 16.4553 44.2239 16.4852L45.9148 20.4397C45.9286 20.4742 45.9148 20.4903 45.8757 20.4903H45.5191C45.4892 20.4903 45.4685 20.4765 45.457 20.4489L45.0038 19.3907ZM43.1657 19.0157H44.845L44.0054 17.035L43.1657 19.0157Z" fill="black"/>
<path id="Vector_11" d="M48.693 18.4659C48.693 18.712 48.7367 18.9398 48.8218 19.1491C48.9069 19.3585 49.0242 19.5402 49.1761 19.6897C49.3279 19.8416 49.505 19.9589 49.7098 20.044C49.9145 20.1291 50.1354 20.1705 50.3746 20.1705C50.5932 20.1705 50.7933 20.1314 50.975 20.0555C51.1568 19.9773 51.3132 19.8807 51.4466 19.7634C51.5778 19.646 51.6859 19.5172 51.771 19.3769C51.8538 19.2365 51.909 19.1031 51.9367 18.9743C51.9436 18.9398 51.9459 18.9214 51.9412 18.9145C51.9366 18.9099 51.9205 18.9076 51.8906 18.9076H50.2964C50.2665 18.9076 50.2504 18.8915 50.2504 18.8616V18.5786C50.2504 18.5487 50.2642 18.5326 50.2964 18.5326H52.2863C52.3392 18.5326 52.3714 18.5372 52.3806 18.5464C52.3898 18.5556 52.3944 18.5878 52.3944 18.6407V18.7028C52.3944 18.903 52.3484 19.1123 52.2587 19.3309C52.1667 19.5494 52.0356 19.7473 51.8607 19.9267C51.6859 20.1061 51.4743 20.2557 51.2212 20.373C50.9704 20.4903 50.6829 20.5478 50.3631 20.5478C50.0617 20.5478 49.7811 20.4949 49.5257 20.3868C49.2704 20.2787 49.0472 20.1314 48.8586 19.9451C48.6699 19.7565 48.5227 19.5379 48.4146 19.2849C48.3088 19.0318 48.2559 18.7603 48.2559 18.4682C48.2559 18.1737 48.3088 17.8977 48.4146 17.6446C48.5227 17.3915 48.6699 17.1707 48.8586 16.9844C49.0472 16.7957 49.2727 16.6485 49.5303 16.545C49.7903 16.4391 50.0732 16.3862 50.3792 16.3862C50.561 16.3862 50.7335 16.4092 50.8945 16.4506C51.0579 16.4944 51.2074 16.5519 51.3477 16.6232C51.4881 16.6945 51.6123 16.7773 51.7227 16.8739C51.8331 16.9683 51.9228 17.0649 51.9942 17.1638C52.0126 17.1914 52.008 17.2144 51.9781 17.2328L51.7227 17.403C51.6928 17.4215 51.6675 17.4192 51.6491 17.3915C51.6077 17.3271 51.5456 17.2581 51.4673 17.1845C51.3868 17.1109 51.2925 17.0419 51.1844 16.9798C51.074 16.9176 50.9497 16.8647 50.8117 16.8233C50.6737 16.7819 50.5218 16.7612 50.3608 16.7612C50.1308 16.7612 49.9122 16.8026 49.7098 16.8854C49.5073 16.9683 49.3302 17.0856 49.1784 17.2374C49.0265 17.3892 48.9092 17.5687 48.8218 17.7803C48.7367 17.9874 48.693 18.2151 48.693 18.4659Z" fill="black"/>
<path id="Vector_12" d="M53.4609 20.4464C53.4609 20.4763 53.4448 20.4924 53.4149 20.4924H53.0675C53.0376 20.4924 53.0215 20.4763 53.0215 20.4464V16.485C53.0215 16.4551 53.0376 16.439 53.0675 16.439H53.4149C53.4448 16.439 53.4609 16.4551 53.4609 16.485V20.4464Z" fill="black"/>
<path id="Vector_13" d="M54.7926 20.4464C54.7926 20.4763 54.7788 20.4924 54.7466 20.4924H54.4015C54.3716 20.4924 54.3555 20.4763 54.3555 20.4464V16.485C54.3555 16.4551 54.3716 16.439 54.4015 16.439H56.7572C56.7871 16.439 56.8032 16.4551 56.8032 16.485V16.7679C56.8032 16.7978 56.7894 16.8139 56.7572 16.8139H54.7949V18.2495H56.7066C56.7365 18.2495 56.7526 18.2656 56.7526 18.2955V18.5784C56.7526 18.6083 56.7388 18.6244 56.7066 18.6244H54.7949V20.4464H54.7926Z" fill="black"/>
<path id="Vector_14" d="M58.8548 16.8141V20.4466C58.8548 20.4765 58.8387 20.4926 58.8088 20.4926H58.4615C58.4315 20.4926 58.4154 20.4765 58.4154 20.4466V16.8141H57.1847C57.1548 16.8141 57.1387 16.798 57.1387 16.7681V16.4852C57.1387 16.4553 57.1548 16.4391 57.1847 16.4391H60.0856C60.1155 16.4391 60.1316 16.4553 60.1316 16.4852V16.7681C60.1316 16.798 60.1155 16.8141 60.0856 16.8141H58.8548Z" fill="black"/>
<path id="Vector_15" d="M65.9661 19.4137C65.9799 19.3861 66.0029 19.3838 66.0328 19.4022L66.2996 19.5839C66.3249 19.6 66.3318 19.6207 66.3157 19.646C66.2513 19.745 66.1662 19.8462 66.0604 19.952C65.9546 20.0578 65.828 20.1567 65.6831 20.2442C65.5382 20.3339 65.3725 20.4052 65.1862 20.4627C65.0022 20.5202 64.7974 20.5478 64.5789 20.5478C64.2844 20.5478 64.0083 20.4949 63.7507 20.3891C63.493 20.2833 63.2699 20.1383 63.0835 19.952C62.8949 19.768 62.7477 19.5471 62.6396 19.2918C62.5314 19.0364 62.4785 18.7603 62.4785 18.4659C62.4785 18.1737 62.5314 17.9023 62.6373 17.6492C62.7431 17.3961 62.8903 17.1753 63.0766 16.989C63.263 16.8026 63.4861 16.6554 63.7461 16.5473C64.006 16.4391 64.289 16.3862 64.595 16.3862C64.7836 16.3862 64.9631 16.4092 65.1356 16.4575C65.3081 16.5059 65.4669 16.568 65.6141 16.6485C65.759 16.729 65.8879 16.821 66.0029 16.9268C66.1156 17.0327 66.2122 17.1431 66.2858 17.2558C66.3042 17.2834 66.2996 17.3064 66.2697 17.3248L66.0144 17.4997C65.9845 17.5204 65.9592 17.5158 65.9408 17.4882C65.8879 17.4053 65.8188 17.3202 65.736 17.2351C65.6532 17.15 65.5543 17.0718 65.4416 17.0005C65.3265 16.9314 65.2 16.8739 65.0551 16.8279C64.9124 16.7819 64.7537 16.7612 64.5789 16.7612C64.3189 16.7612 64.0843 16.8095 63.8818 16.9061C63.6771 17.0028 63.5045 17.1316 63.3596 17.2903C63.217 17.4514 63.1065 17.6331 63.0306 17.8378C62.9547 18.0426 62.9179 18.2519 62.9179 18.4682C62.9179 18.6844 62.9547 18.8938 63.0306 19.0985C63.1065 19.3033 63.2147 19.485 63.3596 19.646C63.5045 19.8071 63.6771 19.9359 63.8841 20.0325C64.0912 20.1291 64.3258 20.1774 64.5904 20.1774C64.7606 20.1774 64.9193 20.1544 65.0643 20.1061C65.2092 20.0601 65.3426 19.998 65.4577 19.9244C65.575 19.8508 65.6762 19.7703 65.7613 19.6805C65.851 19.5885 65.9178 19.5011 65.9661 19.4137Z" fill="black"/>
<path id="Vector_16" d="M66.8965 20.4464V16.485C66.8965 16.4551 66.9103 16.439 66.9425 16.439H69.3925C69.4224 16.439 69.4385 16.4551 69.4385 16.485V16.7679C69.4385 16.7978 69.4224 16.8139 69.3925 16.8139H67.3336V18.2426H69.3258C69.3557 18.2426 69.3718 18.2587 69.3718 18.2886V18.5715C69.3718 18.6014 69.3557 18.6175 69.3258 18.6175H67.3336V20.1152H69.427C69.4569 20.1152 69.473 20.129 69.473 20.1612V20.4441C69.473 20.474 69.4569 20.4901 69.427 20.4901H66.9425C66.9103 20.4924 66.8965 20.4763 66.8965 20.4464Z" fill="black"/>
<path id="Vector_17" d="M71.5322 16.439C71.7899 16.439 72.0038 16.4781 72.1763 16.5517C72.3489 16.6276 72.4846 16.7242 72.5881 16.8439C72.6894 16.9635 72.763 17.0946 72.8067 17.2418C72.8504 17.3868 72.8711 17.5294 72.8711 17.6697C72.8711 17.764 72.8573 17.8676 72.8274 17.9826C72.7975 18.0953 72.7469 18.2057 72.6733 18.3139C72.5996 18.422 72.5007 18.5186 72.3788 18.6037C72.2569 18.6888 72.1004 18.7487 71.9118 18.7832L72.8826 20.4349C72.8895 20.4487 72.8918 20.4625 72.8849 20.4763C72.8803 20.4878 72.8665 20.4924 72.8481 20.4924H72.5076C72.4731 20.4924 72.4501 20.4786 72.434 20.451L71.4701 18.8062H70.6695V20.4464C70.6695 20.4763 70.6534 20.4924 70.6235 20.4924H70.2784C70.2485 20.4924 70.2324 20.4763 70.2324 20.4464V16.485C70.2324 16.4551 70.2485 16.439 70.2784 16.439H71.5322ZM70.6695 16.8139V18.4312H71.5713C71.8313 18.4312 72.0406 18.3691 72.197 18.2472C72.3535 18.1229 72.4317 17.932 72.4317 17.672C72.4317 17.3914 72.3512 17.1797 72.1901 17.0325C72.0291 16.8876 71.8198 16.8139 71.5621 16.8139H70.6695Z" fill="black"/>
<path id="Vector_18" d="M74.8975 16.8139V20.4464C74.8975 20.4763 74.8814 20.4924 74.8515 20.4924H74.5064C74.4765 20.4924 74.4604 20.4763 74.4604 20.4464V16.8139H73.2296C73.1997 16.8139 73.1836 16.7978 73.1836 16.7679V16.485C73.1836 16.4551 73.1997 16.439 73.2296 16.439H76.1282C76.1581 16.439 76.1719 16.4551 76.1719 16.485V16.7679C76.1719 16.7978 76.1581 16.8139 76.1282 16.8139H74.8975Z" fill="black"/>
<path id="Vector_19" d="M77.15 20.4464C77.15 20.4763 77.1339 20.4924 77.104 20.4924H76.7589C76.729 20.4924 76.7129 20.4763 76.7129 20.4464V16.485C76.7129 16.4551 76.729 16.439 76.7589 16.439H77.104C77.1339 16.439 77.15 16.4551 77.15 16.485V20.4464Z" fill="black"/>
<path id="Vector_20" d="M78.4843 20.4464C78.4843 20.4763 78.4705 20.4924 78.4383 20.4924H78.0909C78.061 20.4924 78.0449 20.4763 78.0449 20.4464V16.485C78.0449 16.4551 78.061 16.439 78.0909 16.439H80.4466C80.4765 16.439 80.4926 16.4551 80.4926 16.485V16.7679C80.4926 16.7978 80.4788 16.8139 80.4466 16.8139H78.4843V18.2495H80.396C80.4259 18.2495 80.442 18.2656 80.442 18.2955V18.5784C80.442 18.6083 80.4259 18.6244 80.396 18.6244H78.4843V20.4464Z" fill="black"/>
<path id="Vector_21" d="M81.6285 20.4464C81.6285 20.4763 81.6147 20.4924 81.5825 20.4924H81.2374C81.2075 20.4924 81.1914 20.4763 81.1914 20.4464V16.485C81.1914 16.4551 81.2052 16.439 81.2374 16.439H81.5825C81.6124 16.439 81.6285 16.4551 81.6285 16.485V20.4464Z" fill="black"/>
<path id="Vector_22" d="M85.7747 19.4137C85.7908 19.3861 85.8138 19.3838 85.8414 19.4022L86.1082 19.5839C86.1335 19.6 86.1404 19.6207 86.1243 19.646C86.0599 19.745 85.9748 19.8462 85.869 19.952C85.7632 20.0578 85.6366 20.1567 85.4917 20.2442C85.3468 20.3339 85.1811 20.4052 84.9948 20.4627C84.8084 20.5202 84.606 20.5478 84.3875 20.5478C84.093 20.5478 83.8169 20.4949 83.5593 20.3891C83.3016 20.2833 83.0785 20.1383 82.8921 19.952C82.7035 19.768 82.5563 19.5471 82.4481 19.2918C82.34 19.0364 82.2871 18.7603 82.2871 18.4659C82.2871 18.1737 82.34 17.9023 82.4458 17.6492C82.5517 17.3961 82.6989 17.1753 82.8852 16.989C83.0716 16.8026 83.2947 16.6554 83.5547 16.5473C83.8146 16.4391 84.0976 16.3862 84.4036 16.3862C84.5922 16.3862 84.7739 16.4092 84.9465 16.4575C85.119 16.5059 85.2754 16.568 85.4227 16.6485C85.5676 16.729 85.6987 16.821 85.8115 16.9268C85.9242 17.0327 86.0208 17.1431 86.0944 17.2558C86.1128 17.2834 86.1082 17.3064 86.0783 17.3248L85.823 17.4997C85.7931 17.5204 85.7678 17.5158 85.7494 17.4882C85.6964 17.4053 85.6274 17.3202 85.5446 17.2351C85.4618 17.15 85.3629 17.0718 85.2501 17.0005C85.1374 16.9314 85.0086 16.8739 84.8637 16.8279C84.721 16.7819 84.56 16.7612 84.3875 16.7612C84.1252 16.7612 83.8928 16.8095 83.6904 16.9061C83.4857 17.0028 83.3108 17.1316 83.1682 17.2903C83.0256 17.4514 82.9151 17.6331 82.8392 17.8378C82.7633 18.0426 82.7265 18.2519 82.7265 18.4682C82.7265 18.6844 82.7633 18.8938 82.8392 19.0985C82.9151 19.3033 83.0233 19.485 83.1682 19.646C83.3131 19.8071 83.488 19.9359 83.6927 20.0325C83.8998 20.1291 84.1344 20.1774 84.399 20.1774C84.5692 20.1774 84.7279 20.1544 84.8729 20.1061C85.0178 20.0601 85.1512 19.998 85.2685 19.9244C85.3859 19.8508 85.4871 19.7703 85.5722 19.6805C85.6596 19.5885 85.7263 19.5011 85.7747 19.4137Z" fill="black"/>
<path id="Vector_23" d="M89.2223 19.3905H87.2254L86.7768 20.451C86.7653 20.4786 86.7446 20.4924 86.7147 20.4924H86.3582C86.3168 20.4924 86.3029 20.4717 86.319 20.4349L88.0099 16.485C88.0214 16.4551 88.0398 16.439 88.0674 16.439H88.3849C88.4125 16.439 88.4309 16.4551 88.4424 16.485L90.1333 20.4395C90.1471 20.474 90.1356 20.4901 90.0942 20.4901H89.7353C89.7054 20.4901 89.6847 20.4763 89.6732 20.4487L89.2223 19.3905ZM87.3842 19.0155H89.0635L88.2216 17.0348L87.3842 19.0155Z" fill="black"/>
<path id="Vector_24" d="M91.5928 16.8139V20.4464C91.5928 20.4763 91.5767 20.4924 91.5468 20.4924H91.2017C91.1718 20.4924 91.1557 20.4763 91.1557 20.4464V16.8139H89.9249C89.895 16.8139 89.8789 16.7978 89.8789 16.7679V16.485C89.8789 16.4551 89.895 16.439 89.9249 16.439H92.8235C92.8534 16.439 92.8695 16.4551 92.8695 16.485V16.7679C92.8695 16.7978 92.8534 16.8139 92.8235 16.8139H91.5928Z" fill="black"/>
<path id="Vector_25" d="M98.7015 19.4138C98.7176 19.3862 98.7406 19.3839 98.7705 19.4023L99.0373 19.584C99.0649 19.6001 99.0695 19.6208 99.0534 19.6462C98.989 19.7451 98.9039 19.8463 98.7981 19.9521C98.6923 20.0579 98.5657 20.1569 98.4208 20.2443C98.2759 20.334 98.1102 20.4053 97.9239 20.4628C97.7399 20.5203 97.5351 20.5479 97.3166 20.5479C97.0198 20.5479 96.746 20.495 96.4884 20.3892C96.2307 20.2834 96.0099 20.1385 95.8212 19.9521C95.6349 19.7681 95.4854 19.5472 95.3795 19.2919C95.2714 19.0365 95.2185 18.7605 95.2185 18.466C95.2185 18.1738 95.2714 17.9024 95.3772 17.6493C95.4831 17.3963 95.6303 17.1754 95.8166 16.9891C96.003 16.8027 96.2284 16.6555 96.4861 16.5474C96.746 16.4393 97.029 16.3864 97.335 16.3864C97.5236 16.3864 97.703 16.4094 97.8756 16.4577C98.0481 16.506 98.2068 16.5681 98.3518 16.6486C98.4967 16.7291 98.6278 16.8211 98.7406 16.927C98.8533 17.0328 98.9476 17.1432 99.0235 17.2559C99.0419 17.2835 99.0373 17.3065 99.0074 17.325L98.7521 17.4998C98.7222 17.5205 98.6969 17.5159 98.6785 17.4883C98.6255 17.4055 98.5565 17.3204 98.4737 17.2352C98.3909 17.1501 98.292 17.0719 98.1792 17.0006C98.0665 16.9316 97.9377 16.8741 97.7928 16.828C97.6478 16.782 97.4891 16.7613 97.3166 16.7613C97.0543 16.7613 96.8219 16.8096 96.6172 16.9063C96.4125 17.0029 96.2399 17.1317 96.095 17.2904C95.9524 17.4515 95.8419 17.6332 95.766 17.838C95.6901 18.0427 95.651 18.2521 95.651 18.4683C95.651 18.6845 95.6878 18.8939 95.766 19.0986C95.8419 19.3034 95.9524 19.4851 96.095 19.6462C96.2399 19.8072 96.4148 19.936 96.6195 20.0326C96.8243 20.1293 97.0612 20.1776 97.3258 20.1776C97.496 20.1776 97.6524 20.1546 97.7997 20.1063C97.9469 20.0602 98.0757 19.9981 98.193 19.9245C98.3104 19.8509 98.4116 19.7704 98.4967 19.6807C98.5864 19.5886 98.6531 19.5012 98.7015 19.4138Z" fill="black"/>
<path id="Vector_26" d="M100.07 18.1944H102.311V16.4852C102.311 16.4553 102.327 16.4391 102.357 16.4391H102.702C102.732 16.4391 102.748 16.4553 102.748 16.4852V20.4466C102.748 20.4765 102.732 20.4926 102.702 20.4926H102.357C102.327 20.4926 102.311 20.4765 102.311 20.4466V18.5671H100.07V20.4466C100.07 20.4765 100.054 20.4926 100.024 20.4926H99.6769C99.647 20.4926 99.6309 20.4765 99.6309 20.4466V16.4852C99.6309 16.4553 99.6447 16.4391 99.6769 16.4391H100.024C100.054 16.4391 100.07 16.4553 100.07 16.4852V18.1944Z" fill="black"/>
<path id="Vector_27" d="M106.187 19.3905H104.19L103.742 20.451C103.73 20.4786 103.709 20.4924 103.68 20.4924H103.323C103.282 20.4924 103.268 20.4717 103.284 20.4349L104.975 16.485C104.986 16.4551 105.005 16.439 105.032 16.439H105.35C105.377 16.439 105.396 16.4551 105.407 16.485L107.098 20.4395C107.112 20.474 107.1 20.4901 107.059 20.4901H106.7C106.67 20.4901 106.65 20.4763 106.638 20.4487L106.187 19.3905ZM104.349 19.0155H106.028L105.189 17.0348L104.349 19.0155Z" fill="black"/>
<path id="Vector_28" d="M108.066 16.952V20.4464C108.066 20.4763 108.056 20.4924 108.038 20.4924H107.675C107.645 20.4924 107.631 20.4763 107.631 20.4464V16.485C107.631 16.4551 107.645 16.439 107.675 16.439H108.116C108.158 16.439 108.188 16.4551 108.206 16.485L110.543 19.9794H110.548V16.485C110.548 16.4551 110.562 16.439 110.594 16.439H110.941C110.971 16.439 110.985 16.4551 110.985 16.485V20.4464C110.985 20.4763 110.969 20.4924 110.941 20.4924H110.497C110.456 20.4924 110.426 20.4763 110.408 20.4464L108.07 16.952H108.066Z" fill="black"/>
<path id="Vector_29" d="M112.089 18.4659C112.089 18.712 112.133 18.9398 112.218 19.1491C112.303 19.3585 112.42 19.5402 112.572 19.6897C112.724 19.8416 112.901 19.9589 113.106 20.044C113.311 20.1291 113.532 20.1705 113.768 20.1705C113.989 20.1705 114.189 20.1314 114.371 20.0555C114.553 19.9773 114.709 19.8807 114.843 19.7634C114.974 19.646 115.082 19.5172 115.165 19.3769C115.248 19.2365 115.303 19.1031 115.33 18.9743C115.337 18.9398 115.34 18.9214 115.335 18.9145C115.33 18.9099 115.314 18.9076 115.284 18.9076H113.69C113.66 18.9076 113.644 18.8915 113.644 18.8616V18.5786C113.644 18.5487 113.658 18.5326 113.69 18.5326H115.682C115.735 18.5326 115.765 18.5372 115.777 18.5464C115.786 18.5556 115.791 18.5878 115.791 18.6407V18.7028C115.791 18.903 115.745 19.1123 115.655 19.3309C115.565 19.5494 115.432 19.7473 115.257 19.9267C115.082 20.1061 114.87 20.2557 114.617 20.373C114.367 20.4903 114.079 20.5478 113.759 20.5478C113.456 20.5478 113.177 20.4949 112.922 20.3868C112.667 20.2787 112.443 20.1314 112.255 19.9451C112.066 19.7565 111.919 19.5379 111.813 19.2849C111.707 19.0318 111.654 18.7603 111.654 18.4682C111.654 18.1737 111.707 17.8977 111.813 17.6446C111.919 17.3915 112.066 17.1707 112.255 16.9844C112.443 16.7957 112.669 16.6485 112.929 16.545C113.189 16.4391 113.472 16.3862 113.778 16.3862C113.959 16.3862 114.132 16.4092 114.293 16.4506C114.456 16.4944 114.608 16.5519 114.748 16.6232C114.889 16.6945 115.013 16.7773 115.123 16.8739C115.234 16.9683 115.324 17.0649 115.397 17.1638C115.416 17.1914 115.409 17.2144 115.379 17.2328L115.123 17.403C115.094 17.4215 115.068 17.4192 115.05 17.3915C115.008 17.3271 114.949 17.2581 114.868 17.1845C114.788 17.1109 114.696 17.0419 114.585 16.9798C114.475 16.9176 114.35 16.8647 114.212 16.8233C114.074 16.7819 113.925 16.7612 113.762 16.7612C113.532 16.7612 113.313 16.8026 113.111 16.8854C112.908 16.9683 112.731 17.0856 112.579 17.2374C112.427 17.3892 112.308 17.5687 112.223 17.7803C112.133 17.9874 112.089 18.2151 112.089 18.4659Z" fill="black"/>
<path id="Vector_30" d="M116.42 20.4464V16.485C116.42 16.4551 116.434 16.439 116.466 16.439H118.918C118.948 16.439 118.964 16.4551 118.964 16.485V16.7679C118.964 16.7978 118.948 16.8139 118.918 16.8139H116.859V18.2426H118.852C118.881 18.2426 118.898 18.2587 118.898 18.2886V18.5715C118.898 18.6014 118.884 18.6175 118.852 18.6175H116.859V20.1152H118.953C118.983 20.1152 118.999 20.129 118.999 20.1612V20.4441C118.999 20.474 118.983 20.4901 118.953 20.4901H116.468C116.434 20.4924 116.42 20.4763 116.42 20.4464Z" fill="black"/>
</g>
</g>
<g id="Group_6">
<path id="Vector_31" d="M30.3394 8.33402C30.0288 8.33402 29.739 8.28111 29.4744 8.17529C29.2098 8.06947 28.9798 7.92454 28.7843 7.7382C28.5887 7.55186 28.4369 7.33101 28.3242 7.07795C28.2114 6.8249 28.1539 6.55114 28.1539 6.25438C28.1539 5.93461 28.2137 5.64475 28.3357 5.38479C28.4553 5.12483 28.6209 4.89939 28.8326 4.71305H27.3971C27.3349 4.71305 27.3027 4.68314 27.3027 4.62103V4.11492C27.3027 4.0528 27.3349 4.0229 27.3971 4.0229H29.9069V3.1234C29.9069 3.06129 29.9368 3.03138 30.0012 3.03138H30.6776C30.7397 3.03138 30.7719 3.06359 30.7719 3.1234V4.0229H33.2012C33.2633 4.0229 33.2955 4.0528 33.2955 4.11492V4.62103C33.2955 4.68314 33.2656 4.71305 33.2012 4.71305L31.8347 4.72455C32.0441 4.91089 32.212 5.13404 32.3362 5.39399C32.4604 5.65395 32.5226 5.94381 32.5226 6.26128C32.5226 6.55574 32.465 6.8295 32.3523 7.08025C32.2396 7.33331 32.0855 7.55186 31.8899 7.7382C31.6944 7.92454 31.4666 8.06947 31.1998 8.17529C30.9398 8.28111 30.65 8.33402 30.3394 8.33402ZM27.9584 9.12769C27.9584 9.06558 27.9906 9.03337 28.0527 9.03337H28.729C28.7912 9.03337 28.8234 9.06558 28.8234 9.12769V11.58C28.8234 11.6421 28.8303 11.6812 28.8464 11.6973C28.8625 11.7134 28.9016 11.7204 28.9637 11.7204H36.4725C36.5346 11.7204 36.5645 11.7526 36.5645 11.8147V12.353C36.5645 12.4151 36.5346 12.4473 36.4725 12.4473H28.216C28.1148 12.4473 28.0458 12.4289 28.0113 12.3944C27.9768 12.3599 27.9584 12.2909 27.9584 12.1897V9.12769ZM30.3394 4.86488C30.13 4.86488 29.9391 4.90169 29.7735 4.9753C29.6055 5.04892 29.4629 5.15014 29.341 5.27897C29.2213 5.40779 29.127 5.55503 29.0603 5.72296C28.9936 5.8909 28.9614 6.07034 28.9614 6.26588C28.9614 6.66156 29.0856 6.99054 29.3341 7.25279C29.5825 7.51275 29.9184 7.64388 30.3371 7.64388C30.7351 7.64388 31.064 7.51275 31.324 7.25279C31.5863 6.99284 31.7151 6.66386 31.7151 6.26588C31.7151 6.07034 31.6806 5.8909 31.6093 5.72296C31.5402 5.55503 31.4413 5.40779 31.3171 5.27897C31.1929 5.15014 31.0456 5.04892 30.88 4.9753C30.7144 4.90169 30.5349 4.86488 30.3394 4.86488ZM37.6389 5.66085C37.701 5.66085 37.7332 5.69306 37.7332 5.75287V6.29118C37.7332 6.3533 37.701 6.3855 37.6389 6.3855H35.8399V8.87234C35.8399 8.93445 35.8077 8.96666 35.7455 8.96666H35.0692C35.0071 8.96666 34.9749 8.93675 34.9749 8.87234V3.04289C34.9749 2.98077 35.0071 2.95087 35.0692 2.95087H35.7455C35.8077 2.95087 35.8399 2.98077 35.8399 3.04289V5.65855H37.6389V5.66085Z" fill="black"/>
<path id="Vector_32" d="M44.4467 9.09342H47.9848C48.086 9.09342 48.1528 9.10953 48.1873 9.14634C48.2218 9.18084 48.2402 9.24986 48.2402 9.35108V12.4683C48.2402 12.5304 48.208 12.5626 48.1458 12.5626H47.4695C47.4074 12.5626 47.3752 12.5327 47.3752 12.4683V9.95841C47.3752 9.8963 47.366 9.85719 47.3522 9.84108C47.3361 9.82498 47.297 9.81808 47.2349 9.81808H39.7859C39.7237 9.81808 39.6915 9.78817 39.6915 9.72606V9.18774C39.6915 9.12563 39.7214 9.09342 39.7859 9.09342H43.5817V7.96158H39.19C39.1279 7.96158 39.0957 7.92937 39.0957 7.86726V7.32894C39.0957 7.26683 39.1256 7.23462 39.19 7.23462H48.836C48.8981 7.23462 48.928 7.26683 48.928 7.32894V7.86726C48.928 7.92937 48.8958 7.96158 48.836 7.96158H44.4444V9.09342H44.4467ZM39.8342 3.90811C39.7721 3.90811 39.7398 3.8759 39.7398 3.81379V3.27547C39.7398 3.21336 39.7697 3.18115 39.8342 3.18115H47.9848C48.086 3.18115 48.1528 3.19956 48.1873 3.23406C48.2218 3.26857 48.2402 3.33759 48.2402 3.43881V6.53297C48.2402 6.59509 48.208 6.62729 48.1458 6.62729H47.4695C47.4074 6.62729 47.3752 6.59509 47.3752 6.53297V4.04844C47.3752 3.98633 47.366 3.94722 47.3522 3.93111C47.3361 3.91501 47.297 3.90811 47.2349 3.90811H39.8342Z" fill="black"/>
<path id="Vector_33" d="M53.6225 3.33549C53.7145 3.21816 53.8089 3.21816 53.9032 3.33549L56.9513 7.22332C56.9973 7.27853 56.9904 7.32914 56.926 7.37515L56.459 7.73633C56.3969 7.79154 56.3417 7.78694 56.2957 7.72483L53.7605 4.44432L51.184 7.76164C51.138 7.82375 51.0782 7.82835 51.0092 7.77314L50.5537 7.40966C50.4984 7.37055 50.4961 7.31534 50.5422 7.24633L53.6225 3.33549ZM58.495 10.8328C58.495 11.1135 58.4397 11.3803 58.3316 11.6334C58.2235 11.8864 58.0694 12.1119 57.8715 12.3097C57.6737 12.5076 57.4344 12.6663 57.1538 12.7813C56.8731 12.8986 56.5625 12.9562 56.2198 12.9562C55.877 12.9562 55.5664 12.8986 55.2858 12.7813C55.0051 12.664 54.7659 12.5076 54.568 12.3097C54.3702 12.1119 54.2137 11.8841 54.1056 11.6334C53.9975 11.3803 53.9423 11.1135 53.9423 10.8328C53.9423 10.5912 53.986 10.3543 54.0711 10.1196C54.1562 9.88729 54.2805 9.67565 54.4392 9.48931C54.5979 9.30297 54.7935 9.14193 55.0235 9.01081C55.2536 8.87968 55.5066 8.78996 55.7873 8.74165V8.5208C55.7873 8.45869 55.8195 8.42648 55.8816 8.42648H56.5602C56.6224 8.42648 56.6546 8.45639 56.6546 8.5208V8.74165C56.9329 8.78766 57.1883 8.87738 57.4183 9.01081C57.6484 9.14423 57.8416 9.30297 58.0027 9.48931C58.1614 9.67565 58.2856 9.88729 58.3707 10.1196C58.4513 10.3543 58.495 10.5912 58.495 10.8328ZM57.653 10.8328C57.653 10.6626 57.6185 10.4923 57.5541 10.3244C57.4873 10.1565 57.3953 10.0092 57.2734 9.88039C57.1538 9.75156 57.0019 9.64804 56.8248 9.56983C56.6454 9.49161 56.4429 9.4525 56.2175 9.4525C55.992 9.4525 55.7896 9.49161 55.6101 9.56983C55.4307 9.64804 55.2789 9.75156 55.1546 9.88039C55.0304 10.0092 54.9361 10.1565 54.874 10.3244C54.8119 10.4923 54.7797 10.6603 54.7797 10.8328C54.7797 11.0122 54.8119 11.1825 54.874 11.3458C54.9361 11.5091 55.0304 11.6564 55.1546 11.7829C55.2789 11.9117 55.4307 12.0153 55.6101 12.0935C55.7896 12.1717 55.992 12.2108 56.2175 12.2108C56.4429 12.2108 56.6454 12.1717 56.8248 12.0935C57.0042 12.0153 57.1538 11.9117 57.2734 11.7829C57.393 11.6541 57.4873 11.5091 57.5541 11.3458C57.6185 11.1848 57.653 11.0122 57.653 10.8328ZM60.9933 5.21729C61.0554 5.21729 61.0876 5.2472 61.0876 5.30931V5.84763C61.0876 5.90974 61.0554 5.94195 60.9933 5.94195H59.1943V8.20793C59.1943 8.27005 59.1621 8.30225 59.1 8.30225H58.4213C58.3592 8.30225 58.327 8.27005 58.327 8.20793V3.03182C58.327 2.96971 58.3592 2.9375 58.4213 2.9375H59.1C59.1621 2.9375 59.1943 2.96971 59.1943 3.03182V5.21499H60.9933V5.21729Z" fill="black"/>
<path id="Vector_34" d="M67.8002 9.14173H71.5017C71.5638 9.14173 71.596 9.17164 71.596 9.23375V12.4683C71.596 12.5304 71.5638 12.5626 71.5017 12.5626H63.2337C63.1716 12.5626 63.1394 12.5327 63.1394 12.4683V9.23375C63.1394 9.17164 63.1716 9.14173 63.2337 9.14173H66.9352V8.20773H62.5435C62.4814 8.20773 62.4492 8.17553 62.4492 8.11341V7.5774C62.4492 7.51528 62.4791 7.48308 62.5435 7.48308H72.1895C72.2516 7.48308 72.2838 7.51298 72.2838 7.5774V8.11341C72.2838 8.17553 72.2516 8.20773 72.1895 8.20773H67.8002V9.14173ZM63.1417 6.69861C63.0796 6.69861 63.0473 6.6687 63.0473 6.60429V6.07978C63.0473 6.01766 63.0796 5.98546 63.1417 5.98546H65.127V3.89431H63.1417C63.0796 3.89431 63.0473 3.8644 63.0473 3.80229V3.27547C63.0473 3.21336 63.0796 3.18115 63.1417 3.18115H71.596C71.6581 3.18115 71.6903 3.21336 71.6903 3.27547V3.80229C71.6903 3.8644 71.6581 3.89431 71.596 3.89431H69.6107V5.98546H71.596C71.6581 5.98546 71.6903 6.01766 71.6903 6.07978V6.60429C71.6903 6.6664 71.6581 6.69861 71.596 6.69861H63.1417ZM70.731 9.86409H64.0044V11.8379H70.731V9.86409ZM65.9897 5.98776H68.7457V3.89661H65.9897V5.98776Z" fill="black"/>
<path id="Vector_35" d="M80.807 7.17961C80.8691 7.17961 80.9013 7.21182 80.9013 7.27393V7.81225C80.9013 7.87436 80.8714 7.90427 80.807 7.90427H77.9475V9.03611C77.9475 9.09822 77.9176 9.13043 77.8532 9.13043H77.1768C77.1147 9.13043 77.0825 9.10052 77.0825 9.03611V7.90427H74.2115C74.1494 7.90427 74.1172 7.87436 74.1172 7.81225V7.27393C74.1172 7.21182 74.1471 7.17961 74.2115 7.17961H80.807ZM74.736 4.03714C74.6739 4.03714 74.6417 4.00723 74.6417 3.94282V3.4068C74.6417 3.34469 74.6716 3.31248 74.736 3.31248H79.9328C80.0341 3.31248 80.1031 3.33088 80.1376 3.36539C80.1721 3.3999 80.1905 3.46891 80.1905 3.57014V6.48946C80.1905 6.55158 80.1583 6.58378 80.0962 6.58378H79.4198C79.3577 6.58378 79.3278 6.55158 79.3278 6.48946V4.17747C79.3278 4.11535 79.3186 4.07624 79.3048 4.06014C79.2887 4.04404 79.2496 4.03714 79.1875 4.03714H74.736ZM74.8188 9.14193C74.8188 9.07982 74.851 9.04761 74.9132 9.04761H75.5895C75.6516 9.04761 75.6815 9.07752 75.6815 9.14193V11.5805C75.6815 11.6426 75.6907 11.6817 75.7045 11.6978C75.7206 11.7139 75.7597 11.7208 75.8219 11.7208H83.4342C83.4963 11.7208 83.5285 11.753 83.5285 11.8151V12.3534C83.5285 12.4155 83.4986 12.4477 83.4342 12.4477H75.0742C74.973 12.4477 74.904 12.4293 74.8694 12.3948C74.8349 12.3603 74.8165 12.2913 74.8165 12.1901V9.14193H74.8188ZM83.5055 8.9993C83.5055 9.06142 83.4733 9.09362 83.4112 9.09362H82.7348C82.6727 9.09362 82.6405 9.06142 82.6405 8.9993V6.2088H80.9474C80.8852 6.2088 80.853 6.1766 80.853 6.11448V5.57847C80.853 5.51635 80.8852 5.48415 80.9474 5.48415H82.6405V3.03182C82.6405 2.96971 82.6704 2.9375 82.7348 2.9375H83.4112C83.4733 2.9375 83.5055 2.96971 83.5055 3.03182V8.9993Z" fill="black"/>
<path id="Vector_36" d="M85.6568 4.52735C85.5947 4.52735 85.5625 4.49745 85.5625 4.43534V3.89702C85.5625 3.83491 85.5924 3.805 85.6568 3.805H90.8053C90.9848 3.805 91.0745 3.89472 91.0745 4.07186V11.3C91.0745 11.3621 91.0446 11.3943 90.9802 11.3943H90.3038C90.2417 11.3943 90.2095 11.3644 90.2095 11.3V4.66769C90.2095 4.60557 90.2026 4.56646 90.1865 4.55036C90.1704 4.53426 90.1313 4.52505 90.0715 4.52505H85.6568V4.52735ZM94.3435 3.26668C94.3435 3.20457 94.3757 3.17236 94.4378 3.17236H95.1142C95.1763 3.17236 95.2085 3.20457 95.2085 3.26668V11.9672C95.2085 12.0293 95.1786 12.0615 95.1142 12.0615H94.4378C94.3757 12.0615 94.3435 12.0293 94.3435 11.9672V7.76185H92.2891C92.227 7.76185 92.1948 7.72964 92.1948 7.66753V7.13151C92.1948 7.0694 92.2247 7.03719 92.2891 7.03719H94.3435V3.26668Z" fill="black"/>
<path id="Vector_37" d="M97.7525 4.48134C97.6904 4.48134 97.6582 4.45144 97.6582 4.38933V3.85101C97.6582 3.7889 97.6881 3.75669 97.7525 3.75669H101.933C102.034 3.75669 102.1 3.77279 102.137 3.8096C102.174 3.84411 102.19 3.91312 102.19 4.01434V7.76415C102.19 7.82626 102.16 7.85617 102.098 7.85617H98.5255V10.366C98.5255 10.4281 98.5324 10.4672 98.5485 10.4833C98.5646 10.4994 98.6037 10.5063 98.6658 10.5063H102.285C102.347 10.5063 102.379 10.5385 102.379 10.6007V11.1367C102.379 11.1988 102.347 11.231 102.285 11.231H97.9182C97.8169 11.231 97.7479 11.2126 97.7134 11.1781C97.6789 11.1413 97.6605 11.0746 97.6605 10.9733V7.22353C97.6605 7.16142 97.6904 7.12921 97.7548 7.12921H101.327V4.62168C101.327 4.55956 101.318 4.52045 101.304 4.50665C101.288 4.49055 101.249 4.48365 101.189 4.48365H97.7525V4.48134ZM106.172 7.91368H104.585V11.9764C104.585 12.0385 104.553 12.0707 104.493 12.0707H103.817C103.755 12.0707 103.722 12.0385 103.722 11.9764V3.26668C103.722 3.20457 103.752 3.17236 103.817 3.17236H104.493C104.555 3.17236 104.585 3.20457 104.585 3.26668V7.18903H106.172V3.26668C106.172 3.20457 106.205 3.17236 106.267 3.17236H106.943C107.005 3.17236 107.035 3.20457 107.035 3.26668V11.9787C107.035 12.0408 107.005 12.073 106.943 12.073H106.267C106.205 12.073 106.172 12.0408 106.172 11.9787V7.91368Z" fill="black"/>
<path id="Vector_38" d="M114.51 11.1251H118.902C118.964 11.1251 118.994 11.1573 118.994 11.2194V11.7555C118.994 11.8176 118.964 11.8498 118.902 11.8498H109.256C109.194 11.8498 109.164 11.8176 109.164 11.7555V11.2194C109.164 11.1573 109.194 11.1251 109.256 11.1251H113.648V9.30313C113.648 9.24792 113.678 9.22261 113.742 9.22261H114.418C114.481 9.22261 114.51 9.25022 114.51 9.30313V11.1251ZM109.373 8.2288C109.327 8.18969 109.327 8.14828 109.373 8.10227L113.951 3.52429C114.037 3.43917 114.122 3.43917 114.209 3.52429L118.787 8.10227C118.826 8.14828 118.826 8.19199 118.787 8.2288L118.332 8.6958C118.286 8.74181 118.242 8.74181 118.203 8.6958L114.08 4.5273L109.958 8.6958C109.912 8.74181 109.868 8.74181 109.829 8.6958L109.373 8.2288Z" fill="black"/>
</g>
</g>
</g>
</svg>
